<svg fill="none" height="256" viewBox="0 0 3000 256" width="3000" xmlns="http://www.w3.org/2000/svg" xmlns:xlink="http://www.w3.org/1999/xlink"><filter id="a" color-interpolation-filters="sRGB" filterUnits="userSpaceOnUse" height="299.723" width="3177.49" x="-141.176" y="43.1953"><feFlood flood-opacity="0" result="BackgroundImageFix"/><feBlend in="SourceGraphic" in2="BackgroundImageFix" mode="normal" result="shape"/><feColorMatrix in="SourceAlpha" result="hardAlpha" type="matrix" values="0 0 0 0 0 0 0 0 0 0 0 0 0 0 0 0 0 0 127 0"/><feOffset dy="1"/><feGaussianBlur stdDeviation="20"/><feComposite in2="hardAlpha" k2="-1" k3="1" operator="arithmetic"/><feColorMatrix type="matrix" values="0 0 0 0 0.663815 0 0 0 0 0.798289 0 0 0 0 1 0 0 0 0.25 0"/><feBlend in2="shape" mode="normal" result="effect1_innerShadow_197_181"/></filter><linearGradient id="b" gradientUnits="userSpaceOnUse" x1="1447.57" x2="1447.57" y1="43.1953" y2="253"><stop offset="0" stop-color="#f7f9fc"/><stop offset="1" stop-color="#f7f9fc"/></linearGradient><clipPath id="c"><path d="m0 0h3000v256h-3000z"/></clipPath><g clip-path="url(#c)"><g filter="url(#a)"><path d="m-79.2903 92.8516c27.9947 4.3051 51.307 12.1754 79.671175 23.8894 28.505525 11.772 103.951125 63.583 191.416125 63.583 120.273 0 262.229-102.2068 442.598-102.2068s228.238 79.8208 368.245 84.2208c140.01 4.401 203.12-91.7037 348.45-100.7247 145.34-9.0211 212.77 132.9137 395.12 132.9137 137.35 0 274.3-151.3317 419.85-151.3317 145.56 0 194.66 131.1407 347.82 131.1407 153.15 0 231.63-87.336 343.41-87.336 57.61 0 102.95 10.7944 142.71 29.741 7.78 3.708 19.8 9.646 36.05 17.814.23 76.865.46 207.23 0 207.363-2118.149 0-3177.226 0-3177.226 0s20.629-83.022 61.8857-249.0664z" fill="url(#b)"/></g></g></svg>