<svg fill="none" height="256" viewBox="0 0 3000 256" width="3000" xmlns="http://www.w3.org/2000/svg" xmlns:xlink="http://www.w3.org/1999/xlink"><filter id="a" color-interpolation-filters="sRGB" filterUnits="userSpaceOnUse" height="230.203" width="3153.87" x="-27.9834" y="55.2852"><feFlood flood-opacity="0" result="BackgroundImageFix"/><feBlend in="SourceGraphic" in2="BackgroundImageFix" mode="normal" result="shape"/><feColorMatrix in="SourceAlpha" result="hardAlpha" type="matrix" values="0 0 0 0 0 0 0 0 0 0 0 0 0 0 0 0 0 0 127 0"/><feOffset dy="1"/><feGaussianBlur stdDeviation="25"/><feComposite in2="hardAlpha" k2="-1" k3="1" operator="arithmetic"/><feColorMatrix type="matrix" values="0 0 0 0 0.537576 0 0 0 0 0.755187 0 0 0 0 1 0 0 0 0.25 0"/><feBlend in2="shape" mode="normal" result="effect1_innerShadow_197_181"/></filter><linearGradient id="b" gradientUnits="userSpaceOnUse" x1="1548.95" x2="1548.95" y1="55.2852" y2="256"><stop offset="0" stop-color="#f7f9fc" stop-opacity=".1"/><stop offset="1" stop-color="#f7f9fc"/></linearGradient><clipPath id="c"><path d="m0 0h3000v256h-3000z"/></clipPath><g clip-path="url(#c)"><g filter="url(#a)"><path d="m-27.8551 100.897c79.4098-19.37 155.7941-29.0552 229.1521-29.0552 181.06 0 281.155 116.0962 433.27 116.0962 152.116 0 270.855-132.6528 424.353-132.6528 181.49 0 293.6 132.6528 451.89 132.6528 184.31 0 201.36-106.4507 383.72-106.4507 188.83 0 195.2 69.6107 457.39 69.6107 192.7 0 228.46 38.905 346.12 36.84 169.09-2.967 240.01-60.127 352.4-90.0327l75.44 176.5827-3153.8634 10z" fill="url(#b)"/></g></g></svg>